<?xml version="1.0" encoding="iso-8859-1"?>
<!-- Generator: Adobe Illustrator 19.1.0, SVG Export Plug-In . SVG Version: 6.00 Build 0)  -->
<svg xmlns="http://www.w3.org/2000/svg" xmlns:xlink="http://www.w3.org/1999/xlink" version="1.1" id="Capa_1" x="0px" y="0px" viewBox="0 0 516.303 516.303" style="enable-background:new 0 0 516.303 516.303;" xml:space="preserve" width="512px" height="512px">
<g>
	<g>
		<path d="M258.151,273.651c-3.207,0-6.414-1.069-9.621-3.207c-4.276-3.207-117.584-88.723-117.584-198.825    c0-8.552,7.483-16.034,16.034-16.034h222.342c8.552,0,16.034,7.483,16.034,16.034c0,110.102-113.309,195.618-117.584,199.894    C264.565,272.582,261.358,273.651,258.151,273.651z M164.084,87.654c8.552,69.482,70.551,129.343,94.068,149.653    c24.586-20.31,85.516-80.171,94.068-149.653C352.219,87.654,164.084,87.654,164.084,87.654z" fill="#FFFFFF"/>
		<path d="M369.322,32.068H146.981c-8.552,0-16.034-7.483-16.034-16.034S138.429,0,146.981,0h222.342    c8.552,0,16.034,7.483,16.034,16.034S377.874,32.068,369.322,32.068z" fill="#FFFFFF"/>
		<path d="M369.322,460.717H146.981c-8.552,0-16.034-7.483-16.034-16.034    c0-110.102,113.309-195.618,117.584-199.894c5.345-4.276,13.896-4.276,19.241,0c4.276,3.207,117.584,89.792,117.584,199.894    C385.356,453.235,377.874,460.717,369.322,460.717z M164.084,428.649h189.204c-8.552-69.482-70.551-129.343-94.068-149.653    C233.566,299.306,172.635,359.167,164.084,428.649z" fill="#FFFFFF"/>
		<path d="M369.322,516.303H146.981c-8.552,0-16.034-7.483-16.034-16.034s7.483-16.034,16.034-16.034h222.342    c8.552,0,16.034,7.483,16.034,16.034S377.874,516.303,369.322,516.303z" fill="#FFFFFF"/>
		<path d="M258.151,308.926c0,0-60.93,44.896-60.93,101.55h120.791    C319.081,354.891,258.151,308.926,258.151,308.926z" fill="#FFFFFF"/>
		<path d="M258.151,214.859c0,0,29.931-22.448,29.931-50.241h-59.861    C228.221,192.411,258.151,214.859,258.151,214.859z" fill="#FFFFFF"/>
	</g>
</g>
<g>
</g>
<g>
</g>
<g>
</g>
<g>
</g>
<g>
</g>
<g>
</g>
<g>
</g>
<g>
</g>
<g>
</g>
<g>
</g>
<g>
</g>
<g>
</g>
<g>
</g>
<g>
</g>
<g>
</g>
</svg>
