<?xml version="1.0" encoding="iso-8859-1"?>
<!-- Generator: Adobe Illustrator 19.0.0, SVG Export Plug-In . SVG Version: 6.00 Build 0)  -->
<svg xmlns="http://www.w3.org/2000/svg" xmlns:xlink="http://www.w3.org/1999/xlink" version="1.1" id="Capa_1" x="0px" y="0px" viewBox="0 0 470 470" style="enable-background:new 0 0 470 470;" xml:space="preserve" width="512px" height="512px">
<g>
	<path d="M204.502,380.517c-4.411,0-8,3.589-8,8s3.589,8,8,8s8-3.589,8-8S208.913,380.517,204.502,380.517z" fill="#051401"/>
	<path d="M204.502,302.858c-4.411,0-8,3.589-8,8s3.589,8,8,8s8-3.589,8-8S208.913,302.858,204.502,302.858z" fill="#051401"/>
	<path d="M204.502,225.2c-4.411,0-8,3.589-8,8s3.589,8,8,8s8-3.589,8-8S208.913,225.2,204.502,225.2z" fill="#051401"/>
	<path d="M436.735,135.518l-87.623-93.611c-5.738-6.132-16.305-11.839-24.488-13.261l-12.345-2.299L281.372,1.642   c-0.018-0.014-0.038-0.023-0.056-0.037c-0.296-0.233-0.611-0.445-0.946-0.633c-0.048-0.027-0.097-0.051-0.145-0.076   c-0.327-0.175-0.667-0.332-1.026-0.46c-0.416-0.147-0.776-0.232-1.137-0.3c-0.065-0.012-0.13-0.025-0.195-0.036   c-0.372-0.059-0.744-0.091-1.113-0.094c-0.022,0-0.043-0.005-0.064-0.005h-83.375c-0.018,0-0.035,0.004-0.053,0.004   c-0.376,0.003-0.754,0.035-1.133,0.096c-0.059,0.01-0.117,0.021-0.176,0.032c-0.364,0.068-0.727,0.154-1.088,0.278   c-0.417,0.151-0.759,0.309-1.087,0.485c-0.047,0.025-0.095,0.048-0.142,0.075c-0.335,0.188-0.651,0.401-0.947,0.634   c-0.018,0.014-0.038,0.023-0.056,0.037l-30.91,24.705l-12.256,2.282c-8.273,1.438-18.839,7.146-24.577,13.277l-87.623,93.611   c-1.301,1.39-2.024,3.222-2.024,5.125v130.721c0,4.143,3.358,7.5,7.5,7.5H93.37c4.142,0,7.5-3.357,7.5-7.5v-95.312l25.668-27.043   l-10.285,299.541c-0.115,3.363,2.023,6.392,5.23,7.407C123.293,456.53,166.596,470,235,470s111.707-13.471,113.517-14.044   c3.207-1.016,5.346-4.044,5.229-7.407l-10.285-299.542l25.669,27.043v95.313c0,4.143,3.357,7.5,7.5,7.5h54.629   c4.143,0,7.5-3.357,7.5-7.5V140.643C438.76,138.739,438.036,136.907,436.735,135.518z M274.745,72.4l13.067,27.094l-45.311,66.291   l0-36.422l37.805-109.37l20.055,16.031l-8.855,25.619H281.5c-2.58,0-4.979,1.326-6.352,3.512S273.624,70.077,274.745,72.4z    M194.852,65.154c-1.372-2.186-3.771-3.512-6.352-3.512h-10.007l-8.855-25.619l20.059-16.032l37.805,109.37l0,36.429   l-45.315-66.296L195.255,72.4C196.376,70.077,196.224,67.34,194.852,65.154z M235.002,105.146L203.842,15h62.319L235.002,105.146z    M136.966,282.412h25.483v44.393c0,6.893-5.607,12.5-12.5,12.5h-14.936L136.966,282.412z M334.988,339.305h-14.933   c-6.893,0-12.5-5.607-12.5-12.5v-44.393h25.48L334.988,339.305z M423.76,263.863h-39.629V140.643c0-4.143-3.357-7.5-7.5-7.5   s-7.5,3.357-7.5,7.5v13.62l-28.403-29.924c-2.145-2.261-5.466-2.957-8.338-1.754c-2.874,1.204-4.704,4.061-4.597,7.175   l4.726,137.653h-32.465c-4.143,0-7.5,3.357-7.5,7.5v51.893c0,15.163,12.337,27.5,27.5,27.5h15.448l3.051,88.859   C325.068,446.656,287.37,455,235,455c-52.374,0-90.074-8.345-103.554-11.836l3.051-88.859h15.451c15.164,0,27.5-12.337,27.5-27.5   v-51.893c0-4.143-3.358-7.5-7.5-7.5h-32.468l4.727-137.653c0.107-3.114-1.723-5.971-4.597-7.175   c-2.874-1.203-6.193-0.507-8.338,1.754l-28.403,29.924v-13.62c0-4.143-3.358-7.5-7.5-7.5s-7.5,3.357-7.5,7.5v123.221H46.24V143.605   l85.599-91.449c3.471-3.709,11.19-7.879,16.283-8.765l7.696-1.433l10.244,29.635c1.044,3.022,3.891,5.05,7.088,5.05h3.405   l-9.764,20.244c-1.166,2.417-0.951,5.274,0.563,7.49l60.147,87.996L227.5,432.5c0,4.143,3.358,7.5,7.5,7.5s7.5-3.357,7.5-7.5   l0.002-240.133l60.143-87.99c1.515-2.216,1.73-5.073,0.563-7.49l-9.764-20.244h3.405c3.197,0,6.044-2.027,7.089-5.05l10.243-29.634   l7.785,1.45c5.004,0.869,12.723,5.039,16.194,8.748l85.599,91.449V263.863z" fill="#051401"/>
</g>
<g>
</g>
<g>
</g>
<g>
</g>
<g>
</g>
<g>
</g>
<g>
</g>
<g>
</g>
<g>
</g>
<g>
</g>
<g>
</g>
<g>
</g>
<g>
</g>
<g>
</g>
<g>
</g>
<g>
</g>
</svg>
