<?xml version="1.0" encoding="utf-8"?>
<!-- Generator: Adobe Illustrator 21.0.2, SVG Export Plug-In . SVG Version: 6.00 Build 0)  -->
<svg version="1.1" id="Capa_1" xmlns="http://www.w3.org/2000/svg" xmlns:xlink="http://www.w3.org/1999/xlink" x="0px" y="0px"
	 viewBox="0 0 512 512" style="enable-background:new 0 0 512 512;" xml:space="preserve">
<style type="text/css">
	.st0{fill:#FFFFFF;}
</style>
<g>
	<path class="st0" d="M414.3,462.1c-4-90.8-40.6-170-94.1-206.1c53.5-36.1,90.2-115.3,94.1-206.1c8.8-4.3,13.6-9,13.6-14
		C428,16.1,351,0,256,0C161,0,84,16.1,84,35.9c0,5,4.9,9.7,13.6,14c4,90.8,40.6,170,94.1,206.1c-53.5,36.1-90.2,115.3-94.1,206.1
		c-8.8,4.3-13.6,9-13.6,14c0,19.8,77,35.9,172,35.9s172-16.1,172-35.9C428,471.1,423.1,466.4,414.3,462.1z M223.7,269.1
		c4.7-1.9,8-7.1,8-13.1c0-5.9-3.2-11.2-8-13.1c-55.7-21.8-95.9-96-102.3-184.7c31.5,8.3,80,13.6,134.6,13.6s103.1-5.3,134.6-13.6
		c-6.4,88.7-46.6,162.9-102.3,184.7c-4.8,1.9-8,7.1-8,13.1c0,5.9,3.2,11.2,8,13.1c55.7,21.8,95.9,96,102.3,184.7
		c-5.1-1.3-10.6-2.6-16.5-3.7C356,376.7,256,312.3,256,312.3s-99.9,64.4-118.1,137.8c-5.9,1.2-11.4,2.4-16.5,3.7
		C127.8,365,168,290.9,223.7,269.1z M256,239.1c0,0-21.6-17-46.6-44.3c67.9-14.6,123.3-46.8,153.3-88.4
		C330.7,180.3,256,239.1,256,239.1z"/>
</g>
</svg>
